# xmcd CD database file
#
# Track frame offsets:
#	150
#	17226
#	35943
#	62267
#	80618
#	85671
#	104525
#	119789
#	132411
#	153351
#	172496
#	185339
#	200368
#	215217
#	227745
#	241829
#	273870
#
# Disc length: 3965 seconds
#
# Revision: 0
# Processed by: cddbd v1.5.2PL0 Copyright (c) Steve Scherf et al.
# Submitted via: CDex 1.51
#
DISCID=f80f7b11
DTITLE=Will Tuttle  - Ascension, A Journey Beyond...
DYEAR=2006
DGENRE=New Age
TTITLE0=Maitreya's Vow
TTITLE1=Into the Sunrise
TTITLE2=Freedom's Call
TTITLE3=Touching Earth
TTITLE4=Inner Sanctum
TTITLE5=Vajrasattva's Mirror
TTITLE6=Interbeing
TTITLE7=Healing Light
TTITLE8=Blossoming Vajra
TTITLE9=Two Angels
TTITLE10=Ascension
TTITLE11=Hasta 2012
TTITLE12=Golden Rain
TTITLE13=Rainbow Body
TTITLE14=Triumph of Love
TTITLE15=Alive! (Variation)
TTITLE16=Benediction of Light
EXTD=YEAR: 2006
EXTT0=
EXTT1=
EXTT2=
EXTT3=
EXTT4=
EXTT5=
EXTT6=
EXTT7=
EXTT8=
EXTT9=
EXTT10=
EXTT11=
EXTT12=
EXTT13=
EXTT14=
EXTT15=
EXTT16=
PLAYORDER=
